<svg width="283" height="1409" viewBox="0 0 283 1409" fill="none" xmlns="http://www.w3.org/2000/svg">
<path d="M96.6509 2045.21L96.6509 1992.25L211.731 1938.65L96.6509 1907.81L96.6509 1851.34L303.723 1906.66L303.723 1956.67L184.209 2012.25L303.723 2044.03L303.723 2100.79L96.6509 2045.21Z" fill="#353133"/>
<path d="M217.051 1857.52C185.755 1857.52 153.747 1844.57 129.493 1820.45C107.603 1798.68 92.5121 1766.85 92.5121 1728.67C92.5121 1686.9 112.924 1657.78 144.88 1645.42L171.499 1694.85C154.338 1703.08 144.584 1716.03 144.584 1736.02C144.654 1743.71 146.257 1751.31 149.301 1758.38C152.345 1765.45 156.77 1771.85 162.319 1777.2C175.957 1790.37 194.202 1797.75 213.208 1797.8C239.531 1797.8 255.805 1780.51 255.805 1756.61C255.805 1738.68 248.103 1725.73 234.802 1712.49L269.106 1673.97C291.882 1693.97 307.86 1721.03 307.86 1760.16C307.86 1816.92 272.653 1857.52 217.051 1857.52Z" fill="#353133"/>
<path d="M241.01 1562.78L241.01 1588.07L303.723 1604.84L303.723 1662.19L96.6509 1606.61L96.6509 1528.94C96.6509 1494.83 104.058 1472.18 117.949 1458.35C128.903 1447.46 144.029 1442.46 160.546 1442.46C180.071 1442.46 197.527 1448.63 210.549 1461.88C219.416 1470.69 227.936 1483.64 233.917 1504.53L303.723 1472.47L303.723 1535.41L241.01 1562.78ZM196.049 1543.66C196.049 1528.1 191.911 1515.4 184.8 1508.35C182.5 1505.99 179.742 1504.13 176.693 1502.86C173.644 1501.6 170.368 1500.97 167.066 1501C164.524 1500.89 161.987 1501.33 159.635 1502.29C157.283 1503.26 155.172 1504.72 153.452 1506.59C148.723 1511.29 146.063 1519.54 146.063 1531.59L146.063 1562.71L196.049 1576.23L196.049 1543.66Z" fill="#353133"/>
<path d="M96.6509 1394.81L96.6509 1230.06L145.246 1243.32L145.246 1351.57L176.889 1360.11L176.889 1261.85L221.85 1273.96L221.85 1372.16L254.885 1381L254.885 1270.97L303.706 1283.92L303.706 1450.41L96.6509 1394.81Z" fill="#353133"/>
<path d="M96.6509 1198.02L96.6509 1131.51C96.6509 1091.5 107.604 1066.5 123.287 1050.92C138.656 1035.62 158.772 1028.55 183.913 1028.55C199.118 1028.46 214.184 1031.42 228.221 1037.23C242.257 1043.04 254.978 1051.59 265.629 1062.38C290.474 1087.09 303.792 1122.69 303.792 1170.34L303.792 1253.63L96.6509 1198.02ZM147.245 1137.72L147.245 1154.49L252.833 1182.74L252.833 1163.91C252.833 1139.7 245.444 1118.32 231.83 1104.78C220.216 1093.47 204.615 1087.14 188.364 1087.13C175.655 1087.13 166.492 1090.95 159.972 1097.5C152.2 1105.37 147.245 1118.02 147.245 1137.72Z" fill="#353133"/>
<path d="M96.6509 972.703L96.6509 915.647L303.723 970.974L303.723 1028.03L96.6509 972.703Z" fill="#353133"/>
<path d="M96.6517 895.613L96.6517 836.828L216.461 833.007L96.0606 761.497L96.0606 712.377L216.531 704.441L96.7212 636.493L96.7212 574.769L305.358 699.254L305.358 750.449L187.165 759.768L305.202 831.78L305.202 882.387L96.6517 895.613Z" fill="#353133"/>
<path d="M96.6509 554.032L96.6508 389.295L145.246 402.626L145.246 510.807L176.889 519.331L176.889 421.091L221.85 433.194L221.85 531.451L254.885 540.269L254.885 430.255L303.706 443.205L303.706 609.705L96.6509 554.032Z" fill="#353133"/>
<path d="M100.647 287.911L100.647 232.013L309.284 199.958L309.284 259.971L272.008 264.968L272.008 344.379L309.197 369.034L309.197 431.086L100.647 287.911ZM227.22 269.376L168.106 277.018L227.22 315.557L227.22 269.376Z" fill="#353133"/>
<path d="M241.01 85.4732L241.01 110.768L303.723 127.539L303.723 184.889L96.6508 129.302L96.6508 51.6373C96.6508 17.525 104.057 -5.14177 117.949 -18.9562C128.903 -29.8488 144.029 -34.8454 160.546 -34.8454C180.071 -34.8454 197.527 -28.673 210.549 -15.4291C219.416 -6.61151 227.936 6.33845 233.916 27.2244L303.723 -4.84808L303.723 58.1556L241.01 85.4732ZM196.049 66.4547C196.049 50.8939 191.911 38.2032 184.8 31.149C182.5 28.7918 179.741 26.9249 176.693 25.6614C173.644 24.3983 170.368 23.7652 167.066 23.8011C164.524 23.6844 161.987 24.1243 159.635 25.0892C157.283 26.0543 155.172 27.5208 153.452 29.3856C148.723 34.0884 146.063 42.3355 146.063 54.3865L146.063 85.5076L196.049 99.0281L196.049 66.4547Z" fill="#353133"/>
<path d="M76.8131 2112.03C76.789 2104.48 74.5161 2097.11 70.2813 2090.84C66.0465 2084.58 60.0399 2079.7 53.0199 2076.83C46 2073.96 38.2815 2073.22 30.8394 2074.71C23.3973 2076.19 16.5653 2079.84 11.2062 2085.19C5.84715 2090.53 2.20134 2097.34 0.729251 2104.74C-0.742837 2112.15 0.0248192 2119.82 2.93526 2126.8C5.84571 2133.77 10.7684 2139.72 17.0817 2143.92C23.3949 2148.11 30.8156 2150.34 38.4065 2150.34C43.4585 2150.34 48.4595 2149.34 53.1241 2147.41C57.7886 2145.48 62.0252 2142.66 65.5918 2139.1C69.1584 2135.54 71.9852 2131.32 73.9105 2126.68C75.8359 2122.03 76.8222 2117.05 76.8131 2112.03Z" fill="#FF6A13"/>
<path d="M277.591 2137.64C277.591 2137.64 135.179 2099.6 103.067 2090.73C102.315 2090.53 101.526 2090.49 100.76 2090.64C99.9947 2090.79 99.2731 2091.11 98.652 2091.57C98.031 2092.04 97.5272 2092.65 97.1801 2093.34C96.833 2094.04 96.6519 2094.8 96.6509 2095.58L96.6509 2161.12L285.572 2214.25C299.863 2217.04 303.845 2208.93 303.845 2197.12L303.845 2127.39L294.3 2125.02C292.665 2131.28 290.005 2141.1 277.591 2137.64Z" fill="#FF6A13"/>
</svg>
